# xmcd
#
# Track frame offsets: 
#        150
#        13019
#        28688
#        41438
#        54045
#        70940
#        86936
#        100787
#        120020
#        132585
#        145493
#        159460
#        174185
#        190540
#        205219
#        225036
#        234866
#
# Disc length: 3272 seconds
#
# Revision: 0
# Processed by: cddbd v1.5.2PL0 Copyright (c) Steve Scherf et al.
# Submitted via: ExactAudioCopy v1.1
#
DISCID=ca0cc611
DTITLE=Homesick James - Shake Your Money Maker, The Sentational Record
DTITLE=ings
DYEAR=2018
DGENRE=Blues
TTITLE0=Louise, Louise Blues
TTITLE1=My Baby's Gone
TTITLE2=Tin Pan Alley
TTITLE3=Baby Please Set A Date
TTITLE4=Three Ball Blues
TTITLE5=Got To Move
TTITLE6=That's ALl Right
TTITLE7=Sweet Home Chicago
TTITLE8=Someday Baby Blues
TTITLE9=Dust My Broom
TTITLE10=Moonshine Woman Blues
TTITLE11=Bobby's Rock
TTITLE12=My Baby's Gone Take 2
TTITLE13=Cross Road Blues
TTITLE14=Dust My Broom Take 2
TTITLE15=Shake Your Moneymaker
TTITLE16=Come On In My Kitchen
EXTD=
EXTT0=
EXTT1=
EXTT2=
EXTT3=
EXTT4=
EXTT5=
EXTT6=
EXTT7=
EXTT8=
EXTT9=
EXTT10=
EXTT11=
EXTT12=
EXTT13=
EXTT14=
EXTT15=
EXTT16=
PLAYORDER=
